<svg xmlns="http://www.w3.org/2000/svg" viewBox="0 0 520 300" width="520" height="300" font-family="Segoe UI,Helvetica,Arial,sans-serif" font-size="12"><rect width="520" height="300" fill="#fff"/><text x="260.0" y="22" text-anchor="middle" font-size="15" font-weight="700" fill="#1F3A93">Market Share by Treatment Type (2025)</text><path d="M150.0,60.0 A105,105 0 1 1 65.1,226.7 L99.8,201.4 A62,62 0 1 0 150.0,103.0 Z" fill="#1F3A93" stroke="#fff" stroke-width="2"/><text x="224.4" y="206.9" text-anchor="middle" fill="#fff" font-weight="700" font-size="11">65%</text><rect x="300" y="60" width="14" height="14" fill="#1F3A93"/><text x="322" y="72">Oral</text><text x="500" y="72" text-anchor="end" font-weight="700">65%</text><path d="M65.1,226.7 A105,105 0 0 1 150.0,60.0 L150.0,103.0 A62,62 0 0 0 99.8,201.4 Z" fill="#5B8DB8" stroke="#fff" stroke-width="2"/><text x="75.6" y="131.1" text-anchor="middle" fill="#fff" font-weight="700" font-size="11">35%</text><rect x="300" y="90" width="14" height="14" fill="#5B8DB8"/><text x="322" y="102">Injectable</text><text x="500" y="102" text-anchor="end" font-weight="700">35%</text></svg>