<svg xmlns="http://www.w3.org/2000/svg" viewBox="0 0 1040 80" width="1040" height="80" font-family="Segoe UI,Helvetica,Arial,sans-serif" font-size="12"><rect width="1040" height="80" fill="#fff"/><rect x="10" y="10" width="110" height="60" rx="6" fill="#1F3A93"/><text x="65.0" y="36" text-anchor="middle" fill="#fff" font-weight="700" font-size="11">Secondary</text><text x="65.0" y="52" text-anchor="middle" fill="#fff" font-weight="700" font-size="11">research</text><path d="M124,40 L138,40 M133,35 L138,40 L133,45" stroke="#555" stroke-width="2" fill="none"/><rect x="142" y="10" width="110" height="60" rx="6" fill="#1F3A93"/><text x="197.0" y="36" text-anchor="middle" fill="#fff" font-weight="700" font-size="11">WHO / GBD /</text><text x="197.0" y="52" text-anchor="middle" fill="#fff" font-weight="700" font-size="11">KDIGO data</text><path d="M256,40 L270,40 M265,35 L270,40 L265,45" stroke="#555" stroke-width="2" fill="none"/><rect x="274" y="10" width="110" height="60" rx="6" fill="#1F3A93"/><text x="329.0" y="36" text-anchor="middle" fill="#fff" font-weight="700" font-size="11">Annual reports</text><text x="329.0" y="52" text-anchor="middle" fill="#fff" font-weight="700" font-size="11">&amp; SEC filings</text><path d="M388,40 L402,40 M397,35 L402,40 L397,45" stroke="#555" stroke-width="2" fill="none"/><rect x="406" y="10" width="110" height="60" rx="6" fill="#1F3A93"/><text x="461.0" y="36" text-anchor="middle" fill="#fff" font-weight="700" font-size="11">Data cleaning</text><text x="461.0" y="52" text-anchor="middle" fill="#fff" font-weight="700" font-size="11">(Excel)</text><path d="M520,40 L534,40 M529,35 L534,40 L529,45" stroke="#555" stroke-width="2" fill="none"/><rect x="538" y="10" width="110" height="60" rx="6" fill="#1F3A93"/><text x="593.0" y="36" text-anchor="middle" fill="#fff" font-weight="700" font-size="11">Market sizing &amp;</text><text x="593.0" y="52" text-anchor="middle" fill="#fff" font-weight="700" font-size="11">triangulation</text><path d="M652,40 L666,40 M661,35 L666,40 L661,45" stroke="#555" stroke-width="2" fill="none"/><rect x="670" y="10" width="110" height="60" rx="6" fill="#1F3A93"/><text x="725.0" y="36" text-anchor="middle" fill="#fff" font-weight="700" font-size="11">Segmentation</text><text x="725.0" y="52" text-anchor="middle" fill="#fff" font-weight="700" font-size="11">&amp; forecast</text><path d="M784,40 L798,40 M793,35 L798,40 L793,45" stroke="#555" stroke-width="2" fill="none"/><rect x="802" y="10" width="110" height="60" rx="6" fill="#6B1E4E"/><text x="857.0" y="36" text-anchor="middle" fill="#fff" font-weight="700" font-size="11">Power BI</text><text x="857.0" y="52" text-anchor="middle" fill="#fff" font-weight="700" font-size="11">dashboard</text><path d="M916,40 L930,40 M925,35 L930,40 L925,45" stroke="#555" stroke-width="2" fill="none"/><rect x="934" y="10" width="110" height="60" rx="6" fill="#1F3A93"/><text x="989.0" y="36" text-anchor="middle" fill="#fff" font-weight="700" font-size="11">Validation &amp;</text><text x="989.0" y="52" text-anchor="middle" fill="#fff" font-weight="700" font-size="11">insights</text></svg>